<?xml version="1.0" encoding="UTF-8" standalone="no"?>
<!DOCTYPE svg PUBLIC "-//W3C//DTD SVG 1.1//EN"
 "http://www.w3.org/Graphics/SVG/1.1/DTD/svg11.dtd">
<!-- Generated by graphviz version 2.47.1 (0)
 -->
<!-- Pages: 1 -->
<svg width="380pt" height="356pt"
 viewBox="0.00 0.00 379.55 355.81" xmlns="http://www.w3.org/2000/svg" xmlns:xlink="http://www.w3.org/1999/xlink">
<g id="graph0" class="graph" transform="scale(1 1) rotate(0) translate(4 351.81)">
<!-- Task Managment -->
<g id="node1" class="node">
<title>Task Managment</title>
<polygon fill="#efefef" stroke="transparent" stroke-width="2" points="297.78,-36 163.78,-36 163.78,0 297.78,0 297.78,-36"/>
<polyline fill="none" stroke="#2ec27e" stroke-width="2" points="163.78,0 297.78,0 "/>
<text text-anchor="middle" x="230.78" y="-14.3" font-family="overpass" font-size="14.00" fill="#000000">Task Managment</text>
</g>
<!-- Email -->
<g id="node2" class="node">
<title>Email</title>
<polygon fill="#efefef" stroke="transparent" stroke-width="2" points="371.55,-191.91 316.55,-191.91 316.55,-155.91 371.55,-155.91 371.55,-191.91"/>
<polyline fill="none" stroke="#1c71d8" stroke-width="2" points="316.55,-155.91 371.55,-155.91 "/>
<text text-anchor="middle" x="344.05" y="-170.21" font-family="overpass" font-size="14.00" fill="#000000">Email</text>
</g>
<!-- Task Managment&#45;&gt;Email -->
<g id="edge1" class="edge">
<title>Task Managment&#45;&gt;Email</title>
<path fill="none" stroke="#aaaaaa" stroke-width="1.2" d="M243.99,-36.19C265.82,-66.23 309.15,-125.87 330.92,-155.83"/>
</g>
<!-- Office suite -->
<g id="node3" class="node">
<title>Office suite</title>
<polygon fill="#efefef" stroke="transparent" stroke-width="2" points="95,-288.26 0,-288.26 0,-252.26 95,-252.26 95,-288.26"/>
<polyline fill="none" stroke="#813d9c" stroke-width="2" points="0,-252.26 95,-252.26 "/>
<text text-anchor="middle" x="47.5" y="-266.56" font-family="overpass" font-size="14.00" fill="#000000">Office suite</text>
</g>
<!-- Task Managment&#45;&gt;Office suite -->
<g id="edge2" class="edge">
<title>Task Managment&#45;&gt;Office suite</title>
<path fill="none" stroke="#aaaaaa" stroke-width="1.2" d="M217.6,-36.14C183.86,-82.57 94.68,-205.32 60.81,-251.95"/>
</g>
<!-- Code editor -->
<g id="node4" class="node">
<title>Code editor</title>
<polygon fill="#efefef" stroke="transparent" stroke-width="2" points="279.28,-347.81 182.28,-347.81 182.28,-311.81 279.28,-311.81 279.28,-347.81"/>
<polyline fill="none" stroke="#f5c211" stroke-width="2" points="182.28,-311.81 279.28,-311.81 "/>
<text text-anchor="middle" x="230.78" y="-326.11" font-family="overpass" font-size="14.00" fill="#000000">Code editor</text>
</g>
<!-- Task Managment&#45;&gt;Code editor -->
<g id="edge3" class="edge">
<title>Task Managment&#45;&gt;Code editor</title>
<path fill="none" stroke="#aaaaaa" stroke-width="1.2" d="M230.78,-36.11C230.78,-91.22 230.78,-256.47 230.78,-311.65"/>
</g>
<!-- Git client -->
<g id="node5" class="node">
<title>Git client</title>
<polygon fill="#efefef" stroke="transparent" stroke-width="2" points="86.5,-95.55 8.5,-95.55 8.5,-59.55 86.5,-59.55 86.5,-95.55"/>
<polyline fill="none" stroke="#e66100" stroke-width="2" points="8.5,-59.55 86.5,-59.55 "/>
<text text-anchor="middle" x="47.5" y="-73.85" font-family="overpass" font-size="14.00" fill="#000000">Git client</text>
</g>
<!-- Task Managment&#45;&gt;Git client -->
<g id="edge4" class="edge">
<title>Task Managment&#45;&gt;Git client</title>
<path fill="none" stroke="#aaaaaa" stroke-width="1.2" d="M175.29,-36.03C146.63,-45.34 112.36,-56.48 86.52,-64.87"/>
</g>
<!-- Email&#45;&gt;Office suite -->
<g id="edge5" class="edge">
<title>Email&#45;&gt;Office suite</title>
<path fill="none" stroke="#aaaaaa" stroke-width="1.2" d="M316.42,-182.88C265.81,-199.33 157.68,-234.46 95.04,-254.81"/>
</g>
<!-- Email&#45;&gt;Code editor -->
<g id="edge6" class="edge">
<title>Email&#45;&gt;Code editor</title>
<path fill="none" stroke="#aaaaaa" stroke-width="1.2" d="M330.84,-192.1C309.01,-222.14 265.68,-281.77 243.91,-311.74"/>
</g>
<!-- Email&#45;&gt;Git client -->
<g id="edge7" class="edge">
<title>Email&#45;&gt;Git client</title>
<path fill="none" stroke="#aaaaaa" stroke-width="1.2" d="M316.42,-164.93C263.51,-147.74 147.73,-110.12 86.79,-90.32"/>
</g>
<!-- Office suite&#45;&gt;Code editor -->
<g id="edge8" class="edge">
<title>Office suite&#45;&gt;Code editor</title>
<path fill="none" stroke="#aaaaaa" stroke-width="1.2" d="M95.18,-285.75C121.9,-294.44 155.17,-305.25 182.07,-313.98"/>
</g>
<!-- Office suite&#45;&gt;Git client -->
<g id="edge9" class="edge">
<title>Office suite&#45;&gt;Git client</title>
<path fill="none" stroke="#aaaaaa" stroke-width="1.2" d="M47.5,-252.13C47.5,-215.4 47.5,-132.58 47.5,-95.77"/>
</g>
<!-- Code editor&#45;&gt;Git client -->
<g id="edge10" class="edge">
<title>Code editor&#45;&gt;Git client</title>
<path fill="none" stroke="#aaaaaa" stroke-width="1.2" d="M217.6,-311.67C183.86,-265.24 94.68,-142.49 60.81,-95.87"/>
</g>
</g>
</svg>
