<?xml version="1.0" encoding="UTF-8" standalone="no"?>
<!DOCTYPE svg PUBLIC "-//W3C//DTD SVG 1.1//EN"
 "http://www.w3.org/Graphics/SVG/1.1/DTD/svg11.dtd">
<!-- Generated by graphviz version 2.47.1 (0)
 -->
<!-- Pages: 1 -->
<svg width="256pt" height="332pt"
 viewBox="0.00 0.00 255.60 332.00" xmlns="http://www.w3.org/2000/svg" xmlns:xlink="http://www.w3.org/1999/xlink">
<g id="graph0" class="graph" transform="scale(1 1) rotate(0) translate(4 328)">
<!-- Task Managment -->
<g id="node1" class="node">
<title>Task Managment</title>
<polygon fill="#efefef" stroke="transparent" stroke-width="2" points="161.1,-324 36.1,-324 36.1,-288 161.1,-288 161.1,-324"/>
<polyline fill="none" stroke="#2ec27e" stroke-width="2" points="36.1,-288 161.1,-288 "/>
<text text-anchor="middle" x="98.6" y="-302.3" font-family="overpass" font-size="14.00" fill="#000000">Task Managment</text>
</g>
<!-- Email -->
<g id="node2" class="node">
<title>Email</title>
<polygon fill="#efefef" stroke="transparent" stroke-width="2" points="149.6,-252 95.6,-252 95.6,-216 149.6,-216 149.6,-252"/>
<polyline fill="none" stroke="#1c71d8" stroke-width="2" points="95.6,-216 149.6,-216 "/>
<text text-anchor="middle" x="122.6" y="-230.3" font-family="overpass" font-size="14.00" fill="#000000">Email</text>
</g>
<!-- Task Managment&#45;&gt;Email -->
<g id="edge1" class="edge">
<title>Task Managment&#45;&gt;Email</title>
<path fill="none" stroke="#aaaaaa" stroke-width="1.2" d="M104.53,-287.7C108.25,-276.85 113.03,-262.92 116.74,-252.1"/>
</g>
<!-- Office suite -->
<g id="node3" class="node">
<title>Office suite</title>
<polygon fill="#efefef" stroke="transparent" stroke-width="2" points="103.1,-180 14.1,-180 14.1,-144 103.1,-144 103.1,-180"/>
<polyline fill="none" stroke="#813d9c" stroke-width="2" points="14.1,-144 103.1,-144 "/>
<text text-anchor="middle" x="58.6" y="-158.3" font-family="overpass" font-size="14.00" fill="#000000">Office suite</text>
</g>
<!-- Task Managment&#45;&gt;Office suite -->
<g id="edge2" class="edge">
<title>Task Managment&#45;&gt;Office suite</title>
<path fill="none" stroke="#aaaaaa" stroke-width="1.2" d="M93.78,-287.87C86.09,-260.58 71.14,-207.52 63.44,-180.19"/>
</g>
<!-- Code editor -->
<g id="node4" class="node">
<title>Code editor</title>
<polygon fill="#efefef" stroke="transparent" stroke-width="2" points="247.6,-108 159.6,-108 159.6,-72 247.6,-72 247.6,-108"/>
<polyline fill="none" stroke="#f5c211" stroke-width="2" points="159.6,-72 247.6,-72 "/>
<text text-anchor="middle" x="203.6" y="-86.3" font-family="overpass" font-size="14.00" fill="#000000">Code editor</text>
</g>
<!-- Task Managment&#45;&gt;Code editor -->
<g id="edge3" class="edge">
<title>Task Managment&#45;&gt;Code editor</title>
<path fill="none" stroke="#aaaaaa" stroke-width="1.2" d="M123.91,-287.98C136.01,-278.66 149.74,-266.13 158.6,-252 187.89,-205.28 198.49,-139.22 202.01,-108.27"/>
</g>
<!-- Git client -->
<g id="node5" class="node">
<title>Git client</title>
<polygon fill="#efefef" stroke="transparent" stroke-width="2" points="148.6,-36 74.6,-36 74.6,0 148.6,0 148.6,-36"/>
<polyline fill="none" stroke="#e66100" stroke-width="2" points="74.6,0 148.6,0 "/>
<text text-anchor="middle" x="111.6" y="-14.3" font-family="overpass" font-size="14.00" fill="#000000">Git client</text>
</g>
<!-- Task Managment&#45;&gt;Git client -->
<g id="edge4" class="edge">
<title>Task Managment&#45;&gt;Git client</title>
<path fill="none" stroke="#aaaaaa" stroke-width="1.2" d="M76.41,-287.91C42.49,-259.55 -16.21,-200.32 4.6,-144 21.53,-98.18 63.59,-57.8 89.65,-36.04"/>
</g>
<!-- Email&#45;&gt;Office suite -->
<g id="edge5" class="edge">
<title>Email&#45;&gt;Office suite</title>
<path fill="none" stroke="#aaaaaa" stroke-width="1.2" d="M106.78,-215.7C96.86,-204.85 84.13,-190.92 74.24,-180.1"/>
</g>
<!-- Email&#45;&gt;Code editor -->
<g id="edge6" class="edge">
<title>Email&#45;&gt;Code editor</title>
<path fill="none" stroke="#aaaaaa" stroke-width="1.2" d="M132.37,-215.87C147.94,-188.58 178.21,-135.52 193.8,-108.19"/>
</g>
<!-- Email&#45;&gt;Git client -->
<g id="edge7" class="edge">
<title>Email&#45;&gt;Git client</title>
<path fill="none" stroke="#aaaaaa" stroke-width="1.2" d="M121.72,-215.85C119.66,-175.78 114.55,-76.38 112.49,-36.23"/>
</g>
<!-- Office suite&#45;&gt;Code editor -->
<g id="edge8" class="edge">
<title>Office suite&#45;&gt;Code editor</title>
<path fill="none" stroke="#aaaaaa" stroke-width="1.2" d="M94.07,-143.88C116.63,-132.99 145.71,-118.95 168.25,-108.07"/>
</g>
<!-- Office suite&#45;&gt;Git client -->
<g id="edge9" class="edge">
<title>Office suite&#45;&gt;Git client</title>
<path fill="none" stroke="#aaaaaa" stroke-width="1.2" d="M64.99,-143.87C75.18,-116.58 94.98,-63.52 105.19,-36.19"/>
</g>
<!-- Code editor&#45;&gt;Git client -->
<g id="edge10" class="edge">
<title>Code editor&#45;&gt;Git client</title>
<path fill="none" stroke="#aaaaaa" stroke-width="1.2" d="M180.86,-71.7C166.6,-60.85 148.29,-46.92 134.08,-36.1"/>
</g>
</g>
</svg>
